<svg width="512" height="160" viewBox="0 0 512 160" fill="none" xmlns="http://www.w3.org/2000/svg">
  <defs>
    <linearGradient id="lockupBubbleFill" x1="20" y1="14" x2="108" y2="116" gradientUnits="userSpaceOnUse">
      <stop stop-color="#79AEFF" />
      <stop offset="0.55" stop-color="#4E76EE" />
      <stop offset="1" stop-color="#355CD0" />
    </linearGradient>
    <linearGradient id="lockupBubbleGloss" x1="30" y1="16" x2="84" y2="60" gradientUnits="userSpaceOnUse">
      <stop stop-color="#FFFFFF" stop-opacity="0.48" />
      <stop offset="1" stop-color="#FFFFFF" stop-opacity="0" />
    </linearGradient>
    <linearGradient id="lockupAccentWarm" x1="84" y1="20" x2="102" y2="44" gradientUnits="userSpaceOnUse">
      <stop stop-color="#FFB24D" />
      <stop offset="1" stop-color="#FF7A2F" />
    </linearGradient>
    <filter id="lockupShadow" x="0" y="4" width="128" height="124" filterUnits="userSpaceOnUse" color-interpolation-filters="sRGB">
      <feDropShadow dx="0" dy="8" stdDeviation="7" flood-color="#0F1F5D" flood-opacity="0.32" />
    </filter>
  </defs>
  <g filter="url(#lockupShadow)">
    <path
      d="M46 86L30 116C29 118 31 120 34 119L58 101"
      fill="url(#lockupBubbleFill)"
      stroke="#AAC7FF"
      stroke-width="3"
      stroke-linecap="round"
      stroke-linejoin="round"
    />
    <rect x="12" y="12" width="104" height="94" rx="28" fill="url(#lockupBubbleFill)" />
    <rect x="12" y="12" width="104" height="94" rx="28" stroke="#AAC7FF" stroke-width="3" />
    <path
      d="M20 18H108V52C98 58 77 62 58 58C39 54 26 47 20 36V18Z"
      fill="url(#lockupBubbleGloss)"
      opacity="0.5"
    />
    <path
      d="M44 89V36L82 88V36"
      stroke="#2148BC"
      stroke-opacity="0.28"
      stroke-width="22"
      stroke-linecap="round"
      stroke-linejoin="round"
      transform="translate(3 3)"
    />
    <path
      d="M44 89V36L82 88V36"
      stroke="#FFFFFF"
      stroke-width="18"
      stroke-linecap="round"
      stroke-linejoin="round"
    />
    <path
      d="M87 23C95 20 102 24 103 31C104 37 99 45 91 49"
      stroke="url(#lockupAccentWarm)"
      stroke-width="8"
      stroke-linecap="round"
      stroke-linejoin="round"
    />
  </g>
  <text
    x="146"
    y="69"
    fill="#F4FBFF"
    font-size="38"
    font-weight="700"
    letter-spacing="-0.04em"
    font-family="Space Grotesk, Segoe UI, sans-serif"
  >
    North
  </text>
  <text
    x="146"
    y="104"
    fill="#B4CFFF"
    font-size="28"
    font-weight="500"
    letter-spacing="-0.02em"
    font-family="Space Grotesk, Segoe UI, sans-serif"
  >
    Messenger
  </text>
</svg>
